<?xml version="1.0" encoding="UTF-8" standalone="no"?>
<!DOCTYPE svg PUBLIC "-//W3C//DTD SVG 1.1//EN"
 "http://www.w3.org/Graphics/SVG/1.1/DTD/svg11.dtd">
<!-- Generated by graphviz version 2.40.1 (20161225.0304)
 -->
<!-- Title: dependencies Pages: 1 -->
<svg width="906pt" height="396pt"
 viewBox="0.00 0.00 906.00 395.59" xmlns="http://www.w3.org/2000/svg" xmlns:xlink="http://www.w3.org/1999/xlink">
<g id="graph0" class="graph" transform="scale(1 1) rotate(0) translate(4 391.5901)">
<title>dependencies</title>
<polygon fill="#ffffff" stroke="transparent" points="-4,4 -4,-391.5901 902,-391.5901 902,4 -4,4"/>
<text text-anchor="start" x="428.0091" y="-42.4" font-family="sans-serif" font-weight="bold" font-size="14.00" fill="#000000">Legend</text>
<polygon fill="#ffffb3" stroke="transparent" points="215,-10 215,-30 235,-30 235,-10 215,-10"/>
<text text-anchor="start" x="238.629" y="-15.4" font-family="sans-serif" font-size="14.00" fill="#000000"> &#160;Declarations</text>
<polygon fill="#8dd3c7" stroke="transparent" points="328,-10 328,-30 348,-30 348,-10 328,-10"/>
<text text-anchor="start" x="351.7251" y="-15.4" font-family="sans-serif" font-size="14.00" fill="#000000"> &#160;Module</text>
<polygon fill="#80b1d3" stroke="transparent" points="414,-10 414,-30 434,-30 434,-10 414,-10"/>
<text text-anchor="start" x="437.7812" y="-15.4" font-family="sans-serif" font-size="14.00" fill="#000000"> &#160;Bootstrap</text>
<polygon fill="#fdb462" stroke="transparent" points="511,-10 511,-30 531,-30 531,-10 511,-10"/>
<text text-anchor="start" x="534.6732" y="-15.4" font-family="sans-serif" font-size="14.00" fill="#000000"> &#160;Providers</text>
<polygon fill="#fb8072" stroke="transparent" points="607,-10 607,-30 627,-30 627,-10 607,-10"/>
<text text-anchor="start" x="630.7258" y="-15.4" font-family="sans-serif" font-size="14.00" fill="#000000"> &#160;Exports</text>
<g id="clust1" class="cluster">
<title>cluster_NgxCleaveModule</title>
<polygon fill="none" stroke="#000000" stroke-dasharray="1,5" points="8,-70 8,-379.5901 890,-379.5901 890,-70 8,-70"/>
</g>
<g id="clust2" class="cluster">
<title>cluster_NgxCleaveModule_declarations</title>
<polygon fill="none" stroke="#000000" points="375,-189.5901 375,-241.5901 523,-241.5901 523,-189.5901 375,-189.5901"/>
</g>
<g id="clust3" class="cluster">
<title>cluster_NgxCleaveModule_NgxCleaveDirective_providers</title>
<polygon fill="none" stroke="#000000" points="16,-78 16,-176.5901 882,-176.5901 882,-78 16,-78"/>
</g>
<g id="clust5" class="cluster">
<title>cluster_NgxCleaveModule_exports</title>
<polygon fill="none" stroke="#000000" points="374,-319.5901 374,-371.5901 524,-371.5901 524,-319.5901 374,-319.5901"/>
</g>
<!-- NgxCleaveDirective -->
<g id="node1" class="node">
<title>NgxCleaveDirective</title>
<polygon fill="#ffffb3" stroke="#000000" points="514.5604,-233.5901 383.4396,-233.5901 383.4396,-197.5901 514.5604,-197.5901 514.5604,-233.5901"/>
<text text-anchor="middle" x="449" y="-211.3901" font-family="Times,serif" font-size="14.00" fill="#000000">NgxCleaveDirective</text>
</g>
<!-- NgxCleaveModule -->
<g id="node2" class="node">
<title>NgxCleaveModule</title>
<polygon fill="#8dd3c7" stroke="#000000" points="510.0283,-298.5901 507.0283,-302.5901 486.0283,-302.5901 483.0283,-298.5901 387.9717,-298.5901 387.9717,-262.5901 510.0283,-262.5901 510.0283,-298.5901"/>
<text text-anchor="middle" x="449" y="-276.3901" font-family="Times,serif" font-size="14.00" fill="#000000">NgxCleaveModule</text>
</g>
<!-- NgxCleaveDirective&#45;&gt;NgxCleaveModule -->
<g id="edge1" class="edge">
<title>NgxCleaveDirective&#45;&gt;NgxCleaveModule</title>
<path fill="none" stroke="#000000" d="M449,-233.6962C449,-233.6962 449,-252.581 449,-252.581"/>
<polygon fill="#000000" stroke="#000000" points="445.5001,-252.581 449,-262.581 452.5001,-252.5811 445.5001,-252.581"/>
</g>
<!-- NgxCleaveDirective  -->
<g id="node4" class="node">
<title>NgxCleaveDirective </title>
<polygon fill="#fb8072" stroke="#000000" points="516.0611,-363.5901 381.9389,-363.5901 381.9389,-327.5901 516.0611,-327.5901 516.0611,-363.5901"/>
<text text-anchor="middle" x="449" y="-341.3901" font-family="Times,serif" font-size="14.00" fill="#000000">NgxCleaveDirective </text>
</g>
<!-- NgxCleaveModule&#45;&gt;NgxCleaveDirective  -->
<g id="edge3" class="edge">
<title>NgxCleaveModule&#45;&gt;NgxCleaveDirective </title>
<path fill="none" stroke="#000000" stroke-dasharray="5,2" d="M449,-298.6962C449,-298.6962 449,-317.581 449,-317.581"/>
<polygon fill="#000000" stroke="#000000" points="445.5001,-317.581 449,-327.581 452.5001,-317.5811 445.5001,-317.581"/>
</g>
<!-- {
 &#160;&#160;&#160;provide: NG_VALUE_ACCESSOR, useExisting: forwardRef(() =&gt; NgxCleaveDirective), multi: true
} -->
<g id="node3" class="node">
<title>{
 &#160;&#160;&#160;provide: NG_VALUE_ACCESSOR, useExisting: forwardRef(() =&gt; NgxCleaveDirective), multi: true
}</title>
<ellipse fill="#fdb462" stroke="#000000" cx="449" cy="-127.295" rx="424.8482" ry="41.0911"/>
<text text-anchor="middle" x="449" y="-139.895" font-family="Times,serif" font-size="14.00" fill="#000000">{</text>
<text text-anchor="middle" x="449" y="-123.095" font-family="Times,serif" font-size="14.00" fill="#000000"> &#160;&#160;&#160;provide: NG_VALUE_ACCESSOR, useExisting: forwardRef(() =&gt; NgxCleaveDirective), multi: true</text>
<text text-anchor="middle" x="449" y="-106.295" font-family="Times,serif" font-size="14.00" fill="#000000">}</text>
</g>
<!-- {
 &#160;&#160;&#160;provide: NG_VALUE_ACCESSOR, useExisting: forwardRef(() =&gt; NgxCleaveDirective), multi: true
}&#45;&gt;NgxCleaveDirective -->
<g id="edge2" class="edge">
<title>{
 &#160;&#160;&#160;provide: NG_VALUE_ACCESSOR, useExisting: forwardRef(() =&gt; NgxCleaveDirective), multi: true
}&#45;&gt;NgxCleaveDirective</title>
<path fill="none" stroke="#000000" d="M449,-168.5989C449,-168.5989 449,-187.2551 449,-187.2551"/>
<polygon fill="#000000" stroke="#000000" points="445.5001,-187.255 449,-197.2551 452.5001,-187.2551 445.5001,-187.255"/>
</g>
</g>
</svg>
