<?xml version="1.0" encoding="UTF-8" standalone="no"?>
<!DOCTYPE svg PUBLIC "-//W3C//DTD SVG 1.1//EN"
 "http://www.w3.org/Graphics/SVG/1.1/DTD/svg11.dtd">
<!-- Generated by graphviz version 2.40.1 (20161225.0304)
 -->
<!-- Title: dependencies Pages: 1 -->
<svg width="894pt" height="349pt"
 viewBox="0.00 0.00 894.00 349.00" xmlns="http://www.w3.org/2000/svg" xmlns:xlink="http://www.w3.org/1999/xlink">
<g id="graph0" class="graph" transform="scale(1 1) rotate(0) translate(4 345)">
<title>dependencies</title>
<polygon fill="#ffffff" stroke="transparent" points="-4,4 -4,-345 890,-345 890,4 -4,4"/>
<text text-anchor="start" x="422.0091" y="-42.4" font-family="sans-serif" font-weight="bold" font-size="14.00" fill="#000000">Legend</text>
<polygon fill="#ffffb3" stroke="transparent" points="209,-10 209,-30 229,-30 229,-10 209,-10"/>
<text text-anchor="start" x="232.629" y="-15.4" font-family="sans-serif" font-size="14.00" fill="#000000"> &#160;Declarations</text>
<polygon fill="#8dd3c7" stroke="transparent" points="322,-10 322,-30 342,-30 342,-10 322,-10"/>
<text text-anchor="start" x="345.7251" y="-15.4" font-family="sans-serif" font-size="14.00" fill="#000000"> &#160;Module</text>
<polygon fill="#80b1d3" stroke="transparent" points="408,-10 408,-30 428,-30 428,-10 408,-10"/>
<text text-anchor="start" x="431.7812" y="-15.4" font-family="sans-serif" font-size="14.00" fill="#000000"> &#160;Bootstrap</text>
<polygon fill="#fdb462" stroke="transparent" points="505,-10 505,-30 525,-30 525,-10 505,-10"/>
<text text-anchor="start" x="528.6732" y="-15.4" font-family="sans-serif" font-size="14.00" fill="#000000"> &#160;Providers</text>
<polygon fill="#fb8072" stroke="transparent" points="601,-10 601,-30 621,-30 621,-10 601,-10"/>
<text text-anchor="start" x="624.7258" y="-15.4" font-family="sans-serif" font-size="14.00" fill="#000000"> &#160;Exports</text>
<g id="clust1" class="cluster">
<title>cluster_NgxCleaveModule</title>
<polygon fill="none" stroke="#000000" stroke-dasharray="1,5" points="8,-70 8,-333 878,-333 878,-70 8,-70"/>
</g>
<g id="clust2" class="cluster">
<title>cluster_NgxCleaveModule_declarations</title>
<polygon fill="none" stroke="#000000" points="369,-143 369,-195 517,-195 517,-143 369,-143"/>
</g>
<g id="clust3" class="cluster">
<title>cluster_NgxCleaveModule_NgxCleaveDirective_providers</title>
<polygon fill="none" stroke="#000000" points="16,-78 16,-130 870,-130 870,-78 16,-78"/>
</g>
<g id="clust5" class="cluster">
<title>cluster_NgxCleaveModule_exports</title>
<polygon fill="none" stroke="#000000" points="368,-273 368,-325 518,-325 518,-273 368,-273"/>
</g>
<!-- NgxCleaveDirective -->
<g id="node1" class="node">
<title>NgxCleaveDirective</title>
<polygon fill="#ffffb3" stroke="#000000" points="508.5604,-187 377.4396,-187 377.4396,-151 508.5604,-151 508.5604,-187"/>
<text text-anchor="middle" x="443" y="-164.8" font-family="Times,serif" font-size="14.00" fill="#000000">NgxCleaveDirective</text>
</g>
<!-- NgxCleaveModule -->
<g id="node2" class="node">
<title>NgxCleaveModule</title>
<polygon fill="#8dd3c7" stroke="#000000" points="504.0283,-252 501.0283,-256 480.0283,-256 477.0283,-252 381.9717,-252 381.9717,-216 504.0283,-216 504.0283,-252"/>
<text text-anchor="middle" x="443" y="-229.8" font-family="Times,serif" font-size="14.00" fill="#000000">NgxCleaveModule</text>
</g>
<!-- NgxCleaveDirective&#45;&gt;NgxCleaveModule -->
<g id="edge1" class="edge">
<title>NgxCleaveDirective&#45;&gt;NgxCleaveModule</title>
<path fill="none" stroke="#000000" d="M443,-187.1061C443,-187.1061 443,-205.991 443,-205.991"/>
<polygon fill="#000000" stroke="#000000" points="439.5001,-205.9909 443,-215.991 446.5001,-205.991 439.5001,-205.9909"/>
</g>
<!-- NgxCleaveDirective  -->
<g id="node4" class="node">
<title>NgxCleaveDirective </title>
<polygon fill="#fb8072" stroke="#000000" points="510.0611,-317 375.9389,-317 375.9389,-281 510.0611,-281 510.0611,-317"/>
<text text-anchor="middle" x="443" y="-294.8" font-family="Times,serif" font-size="14.00" fill="#000000">NgxCleaveDirective </text>
</g>
<!-- NgxCleaveModule&#45;&gt;NgxCleaveDirective  -->
<g id="edge3" class="edge">
<title>NgxCleaveModule&#45;&gt;NgxCleaveDirective </title>
<path fill="none" stroke="#000000" stroke-dasharray="5,2" d="M443,-252.1061C443,-252.1061 443,-270.991 443,-270.991"/>
<polygon fill="#000000" stroke="#000000" points="439.5001,-270.9909 443,-280.991 446.5001,-270.991 439.5001,-270.9909"/>
</g>
<!-- { provide: NG_VALUE_ACCESSOR, useExisting: forwardRef(() =&gt; NgxCleaveDirective), multi: true } -->
<g id="node3" class="node">
<title>{ provide: NG_VALUE_ACCESSOR, useExisting: forwardRef(() =&gt; NgxCleaveDirective), multi: true }</title>
<ellipse fill="#fdb462" stroke="#000000" cx="443" cy="-104" rx="418.9186" ry="18"/>
<text text-anchor="middle" x="443" y="-99.8" font-family="Times,serif" font-size="14.00" fill="#000000">{ provide: NG_VALUE_ACCESSOR, useExisting: forwardRef(() =&gt; NgxCleaveDirective), multi: true }</text>
</g>
<!-- { provide: NG_VALUE_ACCESSOR, useExisting: forwardRef(() =&gt; NgxCleaveDirective), multi: true }&#45;&gt;NgxCleaveDirective -->
<g id="edge2" class="edge">
<title>{ provide: NG_VALUE_ACCESSOR, useExisting: forwardRef(() =&gt; NgxCleaveDirective), multi: true }&#45;&gt;NgxCleaveDirective</title>
<path fill="none" stroke="#000000" d="M443,-122.1061C443,-122.1061 443,-140.991 443,-140.991"/>
<polygon fill="#000000" stroke="#000000" points="439.5001,-140.9909 443,-150.991 446.5001,-140.991 439.5001,-140.9909"/>
</g>
</g>
</svg>
